<mxfile host="65bd71144e">
    <diagram id="XanyXTjEwMcWgTQQvCqA" name="Page-1">
<<<<<<< HEAD
        <mxGraphModel dx="1147" dy="478" grid="1" gridSize="10" guides="1" tooltips="1" connect="1" arrows="1" fold="1" page="1" pageScale="1" pageWidth="827" pageHeight="1169" math="0" shadow="0">
=======
        <mxGraphModel dx="1147" dy="536" grid="1" gridSize="10" guides="1" tooltips="1" connect="1" arrows="1" fold="1" page="1" pageScale="1" pageWidth="827" pageHeight="1169" math="0" shadow="0">
<<<<<<< HEAD
>>>>>>> 2e6d21ab33576b06e82cafa742dd4d3f7fd3af37
=======
>>>>>>> 7f04cc7 (crÃ©ation des tables sql)
>>>>>>> 9d5df29 (rebase test)
            <root>
                <mxCell id="0"/>
                <mxCell id="1" parent="0"/>
                <mxCell id="2" value="User" style="swimlane;whiteSpace=wrap;html=1;" parent="1" vertex="1">
                    <mxGeometry x="40" y="40" width="160" height="280" as="geometry"/>
                </mxCell>
                <mxCell id="3" value="Last_name" style="text;strokeColor=none;fillColor=none;align=left;verticalAlign=middle;spacingLeft=4;spacingRight=4;overflow=hidden;points=[[0,0.5],[1,0.5]];portConstraint=eastwest;rotatable=0;whiteSpace=wrap;html=1;" parent="2" vertex="1">
                    <mxGeometry x="10" y="60" width="80" height="30" as="geometry"/>
                </mxCell>
                <mxCell id="4" value="first_name" style="text;strokeColor=none;fillColor=none;align=left;verticalAlign=middle;spacingLeft=4;spacingRight=4;overflow=hidden;points=[[0,0.5],[1,0.5]];portConstraint=eastwest;rotatable=0;whiteSpace=wrap;html=1;" parent="2" vertex="1">
                    <mxGeometry x="10" y="90" width="80" height="30" as="geometry"/>
                </mxCell>
                <mxCell id="5" value="birthday (V2)" style="text;strokeColor=none;fillColor=none;align=left;verticalAlign=middle;spacingLeft=4;spacingRight=4;overflow=hidden;points=[[0,0.5],[1,0.5]];portConstraint=eastwest;rotatable=0;whiteSpace=wrap;html=1;" parent="2" vertex="1">
                    <mxGeometry x="10" y="120" width="80" height="30" as="geometry"/>
                </mxCell>
                <mxCell id="6" value="Email" style="text;strokeColor=none;fillColor=none;align=left;verticalAlign=middle;spacingLeft=4;spacingRight=4;overflow=hidden;points=[[0,0.5],[1,0.5]];portConstraint=eastwest;rotatable=0;whiteSpace=wrap;html=1;" parent="2" vertex="1">
                    <mxGeometry x="10" y="150" width="70" height="30" as="geometry"/>
                </mxCell>
                <mxCell id="7" value="password" style="text;strokeColor=none;fillColor=none;align=left;verticalAlign=middle;spacingLeft=4;spacingRight=4;overflow=hidden;points=[[0,0.5],[1,0.5]];portConstraint=eastwest;rotatable=0;whiteSpace=wrap;html=1;" parent="2" vertex="1">
                    <mxGeometry x="10" y="180" width="70" height="30" as="geometry"/>
                </mxCell>
                <mxCell id="8" value="Id" style="text;html=1;strokeColor=none;fillColor=none;align=center;verticalAlign=middle;whiteSpace=wrap;rounded=0;" parent="2" vertex="1">
                    <mxGeometry x="10" y="30" width="30" height="30" as="geometry"/>
                </mxCell>
                <mxCell id="9" value="Int" style="text;html=1;strokeColor=none;fillColor=none;align=center;verticalAlign=middle;whiteSpace=wrap;rounded=0;" parent="2" vertex="1">
                    <mxGeometry x="80" y="30" width="60" height="30" as="geometry"/>
                </mxCell>
                <mxCell id="10" value="text" style="text;html=1;strokeColor=none;fillColor=none;align=center;verticalAlign=middle;whiteSpace=wrap;rounded=0;" parent="2" vertex="1">
                    <mxGeometry x="80" y="60" width="60" height="30" as="geometry"/>
                </mxCell>
                <mxCell id="11" value="text" style="text;html=1;strokeColor=none;fillColor=none;align=center;verticalAlign=middle;whiteSpace=wrap;rounded=0;" parent="2" vertex="1">
                    <mxGeometry x="80" y="90" width="60" height="30" as="geometry"/>
                </mxCell>
                <mxCell id="12" value="date" style="text;html=1;strokeColor=none;fillColor=none;align=center;verticalAlign=middle;whiteSpace=wrap;rounded=0;" parent="2" vertex="1">
                    <mxGeometry x="80" y="120" width="60" height="30" as="geometry"/>
                </mxCell>
                <mxCell id="13" value="text" style="text;html=1;strokeColor=none;fillColor=none;align=center;verticalAlign=middle;whiteSpace=wrap;rounded=0;" parent="2" vertex="1">
                    <mxGeometry x="80" y="150" width="60" height="30" as="geometry"/>
                </mxCell>
                <mxCell id="14" value="text" style="text;html=1;strokeColor=none;fillColor=none;align=center;verticalAlign=middle;whiteSpace=wrap;rounded=0;" parent="2" vertex="1">
                    <mxGeometry x="80" y="180" width="60" height="30" as="geometry"/>
                </mxCell>
                <mxCell id="15" value="Role_id" style="text;strokeColor=none;fillColor=none;align=left;verticalAlign=middle;spacingLeft=4;spacingRight=4;overflow=hidden;points=[[0,0.5],[1,0.5]];portConstraint=eastwest;rotatable=0;whiteSpace=wrap;html=1;" parent="2" vertex="1">
                    <mxGeometry x="10" y="240" width="70" height="30" as="geometry"/>
                </mxCell>
<<<<<<< HEAD
                <mxCell id="67" value="Int" style="text;html=1;strokeColor=none;fillColor=none;align=center;verticalAlign=middle;whiteSpace=wrap;rounded=0;" vertex="1" parent="2">
                    <mxGeometry x="90" y="245" width="40" height="20" as="geometry"/>
                </mxCell>
=======
<<<<<<< HEAD
>>>>>>> 2e6d21ab33576b06e82cafa742dd4d3f7fd3af37
=======
>>>>>>> 7f04cc7 (crÃ©ation des tables sql)
>>>>>>> 9d5df29 (rebase test)
                <mxCell id="16" value="allergens" style="swimlane;whiteSpace=wrap;html=1;" parent="1" vertex="1">
                    <mxGeometry x="360" y="280" width="98.75" height="110" as="geometry"/>
                </mxCell>
                <mxCell id="17" value="Name" style="text;strokeColor=none;fillColor=none;align=left;verticalAlign=middle;spacingLeft=4;spacingRight=4;overflow=hidden;points=[[0,0.5],[1,0.5]];portConstraint=eastwest;rotatable=0;whiteSpace=wrap;html=1;" parent="16" vertex="1">
                    <mxGeometry x="10" y="60" width="80" height="30" as="geometry"/>
                </mxCell>
                <mxCell id="18" value="Id" style="text;html=1;strokeColor=none;fillColor=none;align=center;verticalAlign=middle;whiteSpace=wrap;rounded=0;" parent="16" vertex="1">
                    <mxGeometry x="10" y="30" width="40" height="30" as="geometry"/>
                </mxCell>
                <mxCell id="19" value="Int" style="text;html=1;strokeColor=none;fillColor=none;align=center;verticalAlign=middle;whiteSpace=wrap;rounded=0;" parent="16" vertex="1">
                    <mxGeometry x="40" y="30" width="60" height="30" as="geometry"/>
                </mxCell>
                <mxCell id="20" value="text" style="text;html=1;strokeColor=none;fillColor=none;align=center;verticalAlign=middle;whiteSpace=wrap;rounded=0;" parent="16" vertex="1">
                    <mxGeometry x="40" y="60" width="60" height="30" as="geometry"/>
                </mxCell>
                <mxCell id="21" style="edgeStyle=orthogonalEdgeStyle;rounded=0;orthogonalLoop=1;jettySize=auto;html=1;exitX=0;exitY=0.5;exitDx=0;exitDy=0;strokeColor=#fd12dd;" parent="1" source="25" target="15" edge="1">
                    <mxGeometry relative="1" as="geometry">
                        <Array as="points">
                            <mxPoint x="250" y="75"/>
                            <mxPoint x="250" y="340"/>
                            <mxPoint x="20" y="340"/>
                            <mxPoint x="20" y="295"/>
                        </Array>
                    </mxGeometry>
                </mxCell>
                <mxCell id="22" value="ROLE" style="swimlane;whiteSpace=wrap;html=1;" parent="1" vertex="1">
                    <mxGeometry x="320" y="40" width="160" height="140" as="geometry"/>
                </mxCell>
                <mxCell id="23" value="user" style="text;html=1;strokeColor=none;fillColor=none;align=center;verticalAlign=middle;whiteSpace=wrap;rounded=0;" parent="22" vertex="1">
                    <mxGeometry x="10" y="50" width="45" height="20" as="geometry"/>
                </mxCell>
                <mxCell id="24" value="administrator" style="text;html=1;strokeColor=none;fillColor=none;align=center;verticalAlign=middle;whiteSpace=wrap;rounded=0;" parent="22" vertex="1">
                    <mxGeometry x="12.5" y="75" width="70" height="10" as="geometry"/>
                </mxCell>
                <mxCell id="25" value="Id" style="text;html=1;strokeColor=none;fillColor=none;align=center;verticalAlign=middle;whiteSpace=wrap;rounded=0;" parent="22" vertex="1">
                    <mxGeometry x="10" y="20" width="35" height="30" as="geometry"/>
                </mxCell>
                <mxCell id="26" value="Int" style="text;html=1;strokeColor=none;fillColor=none;align=center;verticalAlign=middle;whiteSpace=wrap;rounded=0;" parent="22" vertex="1">
                    <mxGeometry x="80" y="20" width="60" height="30" as="geometry"/>
                </mxCell>
                <mxCell id="27" value="text" style="text;html=1;strokeColor=none;fillColor=none;align=center;verticalAlign=middle;whiteSpace=wrap;rounded=0;" parent="22" vertex="1">
                    <mxGeometry x="80" y="45" width="60" height="30" as="geometry"/>
                </mxCell>
                <mxCell id="28" value="text" style="text;html=1;strokeColor=none;fillColor=none;align=center;verticalAlign=middle;whiteSpace=wrap;rounded=0;" parent="22" vertex="1">
                    <mxGeometry x="80" y="65" width="60" height="30" as="geometry"/>
                </mxCell>
                <mxCell id="29" value="category" style="swimlane;whiteSpace=wrap;html=1;startSize=23;" parent="1" vertex="1">
                    <mxGeometry x="200" y="520" width="120" height="90" as="geometry"/>
                </mxCell>
                <mxCell id="30" value="Name" style="text;strokeColor=none;fillColor=none;align=left;verticalAlign=middle;spacingLeft=4;spacingRight=4;overflow=hidden;points=[[0,0.5],[1,0.5]];portConstraint=eastwest;rotatable=0;whiteSpace=wrap;html=1;" parent="29" vertex="1">
                    <mxGeometry x="10" y="50" width="80" height="30" as="geometry"/>
                </mxCell>
                <mxCell id="31" value="Id" style="text;html=1;strokeColor=none;fillColor=none;align=center;verticalAlign=middle;whiteSpace=wrap;rounded=0;" parent="29" vertex="1">
                    <mxGeometry x="10" y="30" width="30" height="30" as="geometry"/>
                </mxCell>
                <mxCell id="32" value="Int" style="text;html=1;strokeColor=none;fillColor=none;align=center;verticalAlign=middle;whiteSpace=wrap;rounded=0;" parent="29" vertex="1">
                    <mxGeometry x="50" y="30" width="60" height="30" as="geometry"/>
                </mxCell>
                <mxCell id="33" value="text" style="text;html=1;strokeColor=none;fillColor=none;align=center;verticalAlign=middle;whiteSpace=wrap;rounded=0;" parent="29" vertex="1">
                    <mxGeometry x="50" y="50" width="60" height="30" as="geometry"/>
                </mxCell>
                <mxCell id="34" value="brand" style="swimlane;whiteSpace=wrap;html=1;startSize=23;" parent="1" vertex="1">
<<<<<<< HEAD
                    <mxGeometry x="570" y="520" width="120" height="100" as="geometry"/>
=======
                    <mxGeometry x="690" y="520" width="120" height="100" as="geometry"/>
<<<<<<< HEAD
>>>>>>> 2e6d21ab33576b06e82cafa742dd4d3f7fd3af37
=======
>>>>>>> 7f04cc7 (crÃ©ation des tables sql)
>>>>>>> 9d5df29 (rebase test)
                </mxCell>
                <mxCell id="35" value="Name" style="text;strokeColor=none;fillColor=none;align=left;verticalAlign=middle;spacingLeft=4;spacingRight=4;overflow=hidden;points=[[0,0.5],[1,0.5]];portConstraint=eastwest;rotatable=0;whiteSpace=wrap;html=1;" parent="34" vertex="1">
                    <mxGeometry x="10" y="50" width="80" height="30" as="geometry"/>
                </mxCell>
                <mxCell id="36" value="Id" style="text;html=1;strokeColor=none;fillColor=none;align=center;verticalAlign=middle;whiteSpace=wrap;rounded=0;" parent="34" vertex="1">
                    <mxGeometry x="10" y="30" width="30" height="20" as="geometry"/>
                </mxCell>
                <mxCell id="37" value="Int" style="text;html=1;strokeColor=none;fillColor=none;align=center;verticalAlign=middle;whiteSpace=wrap;rounded=0;" parent="34" vertex="1">
                    <mxGeometry x="65" y="30" width="30" height="20" as="geometry"/>
                </mxCell>
                <mxCell id="38" value="text" style="text;html=1;strokeColor=none;fillColor=none;align=center;verticalAlign=middle;whiteSpace=wrap;rounded=0;" parent="34" vertex="1">
                    <mxGeometry x="50" y="50" width="60" height="30" as="geometry"/>
                </mxCell>
                <mxCell id="39" value="product" style="swimlane;whiteSpace=wrap;html=1;" parent="1" vertex="1">
<<<<<<< HEAD
                    <mxGeometry x="380" y="520" width="120" height="150" as="geometry"/>
=======
                    <mxGeometry x="380" y="520" width="117.5" height="120" as="geometry"/>
<<<<<<< HEAD
>>>>>>> 2e6d21ab33576b06e82cafa742dd4d3f7fd3af37
=======
>>>>>>> 7f04cc7 (crÃ©ation des tables sql)
>>>>>>> 9d5df29 (rebase test)
                </mxCell>
                <mxCell id="40" value="Name" style="text;strokeColor=none;fillColor=none;align=left;verticalAlign=middle;spacingLeft=4;spacingRight=4;overflow=hidden;points=[[0,0.5],[1,0.5]];portConstraint=eastwest;rotatable=0;whiteSpace=wrap;html=1;" parent="39" vertex="1">
                    <mxGeometry x="15" y="60" width="50" height="20" as="geometry"/>
                </mxCell>
                <mxCell id="41" value="Id" style="text;html=1;strokeColor=none;fillColor=none;align=center;verticalAlign=middle;whiteSpace=wrap;rounded=0;" parent="39" vertex="1">
                    <mxGeometry x="14" y="30" width="30" height="30" as="geometry"/>
                </mxCell>
                <mxCell id="42" value="Int" style="text;html=1;strokeColor=none;fillColor=none;align=center;verticalAlign=middle;whiteSpace=wrap;rounded=0;" parent="39" vertex="1">
                    <mxGeometry x="65" y="30" width="30" height="30" as="geometry"/>
                </mxCell>
                <mxCell id="43" value="text" style="text;html=1;strokeColor=none;fillColor=none;align=center;verticalAlign=middle;whiteSpace=wrap;rounded=0;" parent="39" vertex="1">
                    <mxGeometry x="60" y="50" width="40" height="30" as="geometry"/>
                </mxCell>
                <mxCell id="44" value="category_Id" style="text;html=1;strokeColor=none;fillColor=none;align=center;verticalAlign=middle;whiteSpace=wrap;rounded=0;" parent="39" vertex="1">
<<<<<<< HEAD
                    <mxGeometry x="20" y="90" width="70" height="20" as="geometry"/>
                </mxCell>
                <mxCell id="60" value="brand_Id" style="text;html=1;strokeColor=none;fillColor=none;align=center;verticalAlign=middle;whiteSpace=wrap;rounded=0;" parent="39" vertex="1">
                    <mxGeometry x="14" y="120" width="60" height="20" as="geometry"/>
                </mxCell>
                <mxCell id="62" value="Int" style="text;html=1;strokeColor=none;fillColor=none;align=center;verticalAlign=middle;whiteSpace=wrap;rounded=0;" parent="39" vertex="1">
                    <mxGeometry x="74" y="120" width="40" height="20" as="geometry"/>
                </mxCell>
                <mxCell id="71" value="Int" style="text;html=1;strokeColor=none;fillColor=none;align=center;verticalAlign=middle;whiteSpace=wrap;rounded=0;" vertex="1" parent="39">
                    <mxGeometry x="80" y="90" width="40" height="20" as="geometry"/>
                </mxCell>
                <mxCell id="45" value="User_Allergens" style="swimlane;whiteSpace=wrap;html=1;startSize=23;" parent="1" vertex="1">
                    <mxGeometry x="90" y="360" width="130" height="80" as="geometry"/>
                </mxCell>
                <mxCell id="46" value="User_Id" style="text;html=1;strokeColor=none;fillColor=none;align=center;verticalAlign=middle;whiteSpace=wrap;rounded=0;" parent="45" vertex="1">
                    <mxGeometry x="20" y="35" width="60" height="20" as="geometry"/>
=======
                    <mxGeometry x="15" y="90" width="60" height="20" as="geometry"/>
                </mxCell>
                <mxCell id="45" value="user_allergens" style="swimlane;whiteSpace=wrap;html=1;startSize=23;" parent="1" vertex="1">
                    <mxGeometry x="90" y="360" width="130" height="80" as="geometry"/>
                </mxCell>
                <mxCell id="46" value="User_Id" style="text;html=1;strokeColor=none;fillColor=none;align=center;verticalAlign=middle;whiteSpace=wrap;rounded=0;" parent="45" vertex="1">
                    <mxGeometry x="20" y="30" width="60" height="30" as="geometry"/>
<<<<<<< HEAD
>>>>>>> 2e6d21ab33576b06e82cafa742dd4d3f7fd3af37
=======
>>>>>>> 7f04cc7 (crÃ©ation des tables sql)
>>>>>>> 9d5df29 (rebase test)
                </mxCell>
                <mxCell id="47" value="Allergy_Id" style="text;html=1;strokeColor=none;fillColor=none;align=center;verticalAlign=middle;whiteSpace=wrap;rounded=0;" parent="45" vertex="1">
                    <mxGeometry x="30" y="50" width="60" height="30" as="geometry"/>
                </mxCell>
                <mxCell id="48" value="Int" style="text;html=1;strokeColor=none;fillColor=none;align=center;verticalAlign=middle;whiteSpace=wrap;rounded=0;" parent="45" vertex="1">
                    <mxGeometry x="90" y="35" width="40" height="20" as="geometry"/>
                </mxCell>
                <mxCell id="49" value="Int" style="text;html=1;strokeColor=none;fillColor=none;align=center;verticalAlign=middle;whiteSpace=wrap;rounded=0;" parent="45" vertex="1">
                    <mxGeometry x="90" y="55" width="40" height="20" as="geometry"/>
                </mxCell>
                <mxCell id="50" style="edgeStyle=orthogonalEdgeStyle;rounded=0;orthogonalLoop=1;jettySize=auto;html=1;exitX=0;exitY=0.5;exitDx=0;exitDy=0;strokeColor=#10dbea;" parent="1" source="8" target="46" edge="1">
                    <mxGeometry relative="1" as="geometry">
                        <Array as="points">
                            <mxPoint x="10" y="85"/>
                            <mxPoint x="10" y="405"/>
                        </Array>
                    </mxGeometry>
                </mxCell>
<<<<<<< HEAD
                <mxCell id="51" style="edgeStyle=orthogonalEdgeStyle;rounded=0;orthogonalLoop=1;jettySize=auto;html=1;exitX=0;exitY=0.5;exitDx=0;exitDy=0;strokeColor=#EA103C;" parent="1" source="18" edge="1">
=======
                <mxCell id="51" style="edgeStyle=orthogonalEdgeStyle;rounded=0;orthogonalLoop=1;jettySize=auto;html=1;exitX=0;exitY=0.5;exitDx=0;exitDy=0;strokeColor=#EA103C;" parent="1" source="18" target="47" edge="1">
<<<<<<< HEAD
>>>>>>> 2e6d21ab33576b06e82cafa742dd4d3f7fd3af37
=======
>>>>>>> 7f04cc7 (crÃ©ation des tables sql)
>>>>>>> 9d5df29 (rebase test)
                    <mxGeometry relative="1" as="geometry">
                        <Array as="points">
                            <mxPoint x="280" y="325"/>
                            <mxPoint x="280" y="460"/>
                            <mxPoint x="60" y="460"/>
                            <mxPoint x="60" y="425"/>
                            <mxPoint x="120" y="425"/>
                        </Array>
                        <mxPoint x="120" y="425" as="targetPoint"/>
                    </mxGeometry>
                </mxCell>
                <mxCell id="52" style="edgeStyle=orthogonalEdgeStyle;rounded=0;orthogonalLoop=1;jettySize=auto;html=1;exitX=0;exitY=0.5;exitDx=0;exitDy=0;entryX=0;entryY=0.5;entryDx=0;entryDy=0;strokeColor=#3fea10;" parent="1" source="31" target="44" edge="1">
                    <mxGeometry relative="1" as="geometry">
                        <Array as="points">
                            <mxPoint x="180" y="565"/>
                            <mxPoint x="180" y="620"/>
                        </Array>
                    </mxGeometry>
                </mxCell>
<<<<<<< HEAD
                <mxCell id="53" value="Allergen_product" style="swimlane;whiteSpace=wrap;html=1;startSize=23;" parent="1" vertex="1">
=======
                <mxCell id="53" value="allergens_product" style="swimlane;whiteSpace=wrap;html=1;startSize=23;" parent="1" vertex="1">
<<<<<<< HEAD
>>>>>>> 2e6d21ab33576b06e82cafa742dd4d3f7fd3af37
=======
>>>>>>> 7f04cc7 (crÃ©ation des tables sql)
>>>>>>> 9d5df29 (rebase test)
                    <mxGeometry x="470" y="410" width="130" height="80" as="geometry"/>
                </mxCell>
                <mxCell id="54" value="Allergy_Id" style="text;html=1;strokeColor=none;fillColor=none;align=center;verticalAlign=middle;whiteSpace=wrap;rounded=0;" parent="53" vertex="1">
                    <mxGeometry x="16.25" y="30" width="63.75" height="20" as="geometry"/>
                </mxCell>
                <mxCell id="55" value="Product_Id" style="text;html=1;strokeColor=none;fillColor=none;align=center;verticalAlign=middle;whiteSpace=wrap;rounded=0;" parent="53" vertex="1">
                    <mxGeometry x="18.130000000000003" y="50" width="63.75" height="20" as="geometry"/>
                </mxCell>
                <mxCell id="56" value="Int" style="text;html=1;strokeColor=none;fillColor=none;align=center;verticalAlign=middle;whiteSpace=wrap;rounded=0;" parent="53" vertex="1">
                    <mxGeometry x="81.88" y="30" width="40" height="20" as="geometry"/>
                </mxCell>
                <mxCell id="57" value="Int" style="text;html=1;strokeColor=none;fillColor=none;align=center;verticalAlign=middle;whiteSpace=wrap;rounded=0;" parent="53" vertex="1">
                    <mxGeometry x="81.88" y="50" width="40" height="20" as="geometry"/>
                </mxCell>
<<<<<<< HEAD
                <mxCell id="65" style="edgeStyle=orthogonalEdgeStyle;rounded=0;orthogonalLoop=1;jettySize=auto;html=1;entryX=0;entryY=0.5;entryDx=0;entryDy=0;strokeColor=#4F80E3;fillColor=#dae8fc;gradientColor=#7ea6e0;exitX=0;exitY=0.5;exitDx=0;exitDy=0;" parent="1" source="41" target="55" edge="1">
=======
                <mxCell id="58" value="product_brand" style="swimlane;whiteSpace=wrap;html=1;startSize=23;" parent="1" vertex="1">
                    <mxGeometry x="540" y="545" width="111.25" height="80" as="geometry"/>
                </mxCell>
                <mxCell id="59" value="Product_Id" style="text;html=1;strokeColor=none;fillColor=none;align=center;verticalAlign=middle;whiteSpace=wrap;rounded=0;" parent="58" vertex="1">
                    <mxGeometry x="20" y="30" width="50" height="20" as="geometry"/>
                </mxCell>
                <mxCell id="60" value="brand_Id" style="text;html=1;strokeColor=none;fillColor=none;align=center;verticalAlign=middle;whiteSpace=wrap;rounded=0;" parent="58" vertex="1">
                    <mxGeometry x="11.25" y="50" width="60" height="20" as="geometry"/>
                </mxCell>
                <mxCell id="61" value="Int" style="text;html=1;strokeColor=none;fillColor=none;align=center;verticalAlign=middle;whiteSpace=wrap;rounded=0;" parent="58" vertex="1">
                    <mxGeometry x="71.25" y="30" width="40" height="20" as="geometry"/>
                </mxCell>
                <mxCell id="62" value="Int" style="text;html=1;strokeColor=none;fillColor=none;align=center;verticalAlign=middle;whiteSpace=wrap;rounded=0;" parent="58" vertex="1">
                    <mxGeometry x="70" y="50" width="40" height="20" as="geometry"/>
                </mxCell>
                <mxCell id="63" style="edgeStyle=orthogonalEdgeStyle;rounded=0;orthogonalLoop=1;jettySize=auto;html=1;exitX=0;exitY=0.5;exitDx=0;exitDy=0;entryX=0.5;entryY=1;entryDx=0;entryDy=0;strokeColor=#ea8f10;" parent="1" source="36" target="60" edge="1">
                    <mxGeometry relative="1" as="geometry">
                        <Array as="points">
                            <mxPoint x="670" y="560"/>
                            <mxPoint x="670" y="650"/>
                            <mxPoint x="581" y="650"/>
                        </Array>
                    </mxGeometry>
                </mxCell>
                <mxCell id="64" style="edgeStyle=orthogonalEdgeStyle;rounded=0;orthogonalLoop=1;jettySize=auto;html=1;exitX=0;exitY=0.25;exitDx=0;exitDy=0;entryX=0;entryY=0.5;entryDx=0;entryDy=0;strokeColor=#4F80E3;" parent="1" source="41" target="59" edge="1">
>>>>>>> 2e6d21ab33576b06e82cafa742dd4d3f7fd3af37
                    <mxGeometry relative="1" as="geometry">
                        <Array as="points">
                            <mxPoint x="340" y="565"/>
=======
                <mxCell id="58" value="product_brand" style="swimlane;whiteSpace=wrap;html=1;startSize=23;" parent="1" vertex="1">
                    <mxGeometry x="540" y="545" width="111.25" height="80" as="geometry"/>
                </mxCell>
                <mxCell id="59" value="Product_Id" style="text;html=1;strokeColor=none;fillColor=none;align=center;verticalAlign=middle;whiteSpace=wrap;rounded=0;" parent="58" vertex="1">
                    <mxGeometry x="20" y="30" width="50" height="20" as="geometry"/>
                </mxCell>
                <mxCell id="60" value="brand_Id" style="text;html=1;strokeColor=none;fillColor=none;align=center;verticalAlign=middle;whiteSpace=wrap;rounded=0;" parent="58" vertex="1">
                    <mxGeometry x="11.25" y="50" width="60" height="20" as="geometry"/>
                </mxCell>
                <mxCell id="61" value="Int" style="text;html=1;strokeColor=none;fillColor=none;align=center;verticalAlign=middle;whiteSpace=wrap;rounded=0;" parent="58" vertex="1">
                    <mxGeometry x="71.25" y="30" width="40" height="20" as="geometry"/>
                </mxCell>
                <mxCell id="62" value="Int" style="text;html=1;strokeColor=none;fillColor=none;align=center;verticalAlign=middle;whiteSpace=wrap;rounded=0;" parent="58" vertex="1">
                    <mxGeometry x="70" y="50" width="40" height="20" as="geometry"/>
                </mxCell>
                <mxCell id="63" style="edgeStyle=orthogonalEdgeStyle;rounded=0;orthogonalLoop=1;jettySize=auto;html=1;exitX=0;exitY=0.5;exitDx=0;exitDy=0;entryX=0.5;entryY=1;entryDx=0;entryDy=0;strokeColor=#ea8f10;" parent="1" source="36" target="60" edge="1">
                    <mxGeometry relative="1" as="geometry">
                        <Array as="points">
                            <mxPoint x="670" y="560"/>
                            <mxPoint x="670" y="650"/>
                            <mxPoint x="581" y="650"/>
                        </Array>
                    </mxGeometry>
                </mxCell>
                <mxCell id="64" style="edgeStyle=orthogonalEdgeStyle;rounded=0;orthogonalLoop=1;jettySize=auto;html=1;exitX=0;exitY=0.25;exitDx=0;exitDy=0;entryX=0;entryY=0.5;entryDx=0;entryDy=0;strokeColor=#4F80E3;" parent="1" source="41" target="59" edge="1">
                    <mxGeometry relative="1" as="geometry">
                        <Array as="points">
                            <mxPoint x="360" y="558"/>
                            <mxPoint x="360" y="500"/>
                            <mxPoint x="520" y="500"/>
                            <mxPoint x="520" y="585"/>
                        </Array>
                    </mxGeometry>
                </mxCell>
                <mxCell id="65" style="edgeStyle=orthogonalEdgeStyle;rounded=0;orthogonalLoop=1;jettySize=auto;html=1;exitX=0;exitY=0.75;exitDx=0;exitDy=0;entryX=0;entryY=0.5;entryDx=0;entryDy=0;strokeColor=#4F80E3;fillColor=#dae8fc;gradientColor=#7ea6e0;" parent="1" source="41" target="55" edge="1">
                    <mxGeometry relative="1" as="geometry">
                        <Array as="points">
                            <mxPoint x="340" y="573"/>
>>>>>>> 7f04cc7 (crÃ©ation des tables sql)
                            <mxPoint x="340" y="470"/>
                        </Array>
                        <mxPoint x="400" y="565" as="sourcePoint"/>
                    </mxGeometry>
                </mxCell>
<<<<<<< HEAD
                <mxCell id="66" style="edgeStyle=orthogonalEdgeStyle;rounded=0;orthogonalLoop=1;jettySize=auto;html=1;exitX=0;exitY=0.75;exitDx=0;exitDy=0;entryX=0;entryY=0.75;entryDx=0;entryDy=0;strokeColor=#EA103C;" parent="1" source="18" target="54" edge="1">
=======
                <mxCell id="65" style="edgeStyle=orthogonalEdgeStyle;rounded=0;orthogonalLoop=1;jettySize=auto;html=1;exitX=0;exitY=0.75;exitDx=0;exitDy=0;entryX=0;entryY=0.5;entryDx=0;entryDy=0;strokeColor=#4F80E3;fillColor=#dae8fc;gradientColor=#7ea6e0;" parent="1" source="41" target="55" edge="1">
>>>>>>> 2e6d21ab33576b06e82cafa742dd4d3f7fd3af37
                    <mxGeometry relative="1" as="geometry">
                        <Array as="points">
                            <mxPoint x="340" y="333"/>
                            <mxPoint x="340" y="455"/>
                        </Array>
                    </mxGeometry>
                </mxCell>
<<<<<<< HEAD
                <mxCell id="68" value="" style="edgeStyle=orthogonalEdgeStyle;rounded=0;orthogonalLoop=1;jettySize=auto;html=1;exitX=0;exitY=0.5;exitDx=0;exitDy=0;entryX=0;entryY=0.5;entryDx=0;entryDy=0;strokeColor=#ea8f10;endArrow=classic;endFill=1;" edge="1" parent="1" source="36" target="60">
=======
                <mxCell id="66" style="edgeStyle=orthogonalEdgeStyle;rounded=0;orthogonalLoop=1;jettySize=auto;html=1;exitX=0;exitY=0.75;exitDx=0;exitDy=0;entryX=0;entryY=0.75;entryDx=0;entryDy=0;strokeColor=#EA103C;" parent="1" source="18" target="54" edge="1">
>>>>>>> 2e6d21ab33576b06e82cafa742dd4d3f7fd3af37
                    <mxGeometry relative="1" as="geometry">
                        <Array as="points">
                            <mxPoint x="540" y="560"/>
                            <mxPoint x="540" y="700"/>
                            <mxPoint x="340" y="700"/>
                            <mxPoint x="340" y="650"/>
                        </Array>
                        <mxPoint x="700" y="560" as="sourcePoint"/>
                        <mxPoint x="424" y="660" as="targetPoint"/>
                    </mxGeometry>
                </mxCell>
            </root>
        </mxGraphModel>
    </diagram>
</mxfile>